<svg height="14" viewBox="0 0 14 14" width="14"
  xmlns="http://www.w3.org/2000/svg">
  <g fill="#3a3a3a" transform="">
    <path d="m6.99487208 13.9858124c-.72973228.0000159-1.45352052-.114929-2.15506236-.3424764-.89670763-.2908284-1.70984791-.7487755-2.41682386-1.3610928-.68265793-.5912821-1.23778162-1.3006803-1.64994523-2.1085298-.41214766-.80788151-.66069838-1.67370554-.73873602-2.57344098-.08081046-.93178233.02567257-1.85889547.31651692-2.7556031.2908284-.89672356.74877556-1.70984791 1.36109286-2.41682386.59125017-.68265792 1.3006643-1.23778161 2.10851389-1.64994522.80783365-.41216362 1.67364176-.66071432 2.57334532-.73875196.93170265-.08081046 1.85883174.02567258 2.75547561.31651692 1.01810659.33020578 1.92188969.84708354 2.68623459 1.53624327.7559945.68163803 1.3326156 1.4921489 1.7138318 2.40899939.1013517.24380185-.0141032.52360268-.257905.62498625-.2437381.1013517-.5236027-.01408725-.6249863-.25790504-.6616545-1.5913652-2.051145-2.83164875-3.81219461-3.40283573-1.53157407-.49679866-3.16499388-.36733619-4.59927988.36443587-1.43433381.73180393-2.49785742 1.97836618-2.9946242 3.51005181-1.02553265 3.16191827.71255349 6.56865828 3.87447175 7.59419088 2.67942996.869075 5.65140934-.2639765 7.06682744-2.6941546.1329046-.2281688.4255815-.30537777.6537185-.17250505.2281529.13288865.3053937.42556565.172505.65371855-.7901449 1.3566149-2.0356235 2.4186246-3.50703991 2.990433-.73371624.2851394-1.50295337.4433819-2.28632558.4703612-.07991804.0027569-.15982017.0041274-.23961073.0041274z"/>
    <path d="m13.1943456 5.10302056h-3.31464699c-.26402439 0-.47807409-.21404971-.47807409-.47807409s.2140497-.47807409.47807409-.47807409h3.31464699c.2640244 0 .4780741.21404971.4780741.47807409s-.2140497.47807409-.4780741.47807409z"/>
    <path d="m13.4023875 5.10302056c-.2640244 0-.4780741-.21404971-.4780741-.47807409v-3.31464699c0-.26402438.2140497-.47807409.4780741-.47807409s.4780741.21404971.4780741.47807409v3.31464699c0 .26402438-.2140338.47807409-.4780741.47807409z"/>
  </g>
</svg>
