<?xml version="1.0" encoding="UTF-8"?>
<svg width="20px" height="17px" viewBox="0 0 20 17" version="1.1" xmlns="http://www.w3.org/2000/svg" xmlns:xlink="http://www.w3.org/1999/xlink">
    <!-- Generator: Sketch 46.2 (44496) - http://www.bohemiancoding.com/sketch -->
    <title>刷新 copy</title>
    <desc>Created with Sketch.</desc>
    <defs></defs>
    <g id="Page-1" stroke="none" stroke-width="1" fill="none" fill-rule="evenodd">
        <g id="Signup-1-Copy-2" transform="translate(-675.000000, -527.000000)" fill-rule="nonzero" fill="#3A3A3A">
            <g id="刷新-copy" transform="translate(675.000000, 527.000000)">
                <path d="M13.63303,13.2674275 C12.5320311,14.025029 11.2406659,14.4024371 9.92372919,14.387118 C9.74899001,14.3843327 9.57709212,14.3717988 9.40519423,14.359265 C9.33558269,14.3523017 9.26597114,14.3411605 9.1963596,14.331412 C9.0599778,14.3147002 8.92785794,14.2979884 8.79573807,14.271528 C8.71476138,14.2576015 8.63378468,14.2353191 8.55564928,14.2172147 C8.4263707,14.1893617 8.29851276,14.1615087 8.17207547,14.1252998 C8.11240844,14.1030174 8.05558269,14.084913 7.99591565,14.0612379 C7.84958935,14.0166731 7.70468368,13.9665377 7.5654606,13.9094391 C7.53420644,13.8955126 7.50295228,13.8843714 7.47169811,13.8718375 C7.30832408,13.7980271 7.1463707,13.722824 6.98867925,13.6420503 C6.98299667,13.6378723 6.97447281,13.635087 6.96879023,13.6309091 C6.43746948,13.3440232 5.95302997,12.9916828 5.52683685,12.5711025 C5.51973363,12.5641393 5.51405105,12.5557834 5.50552719,12.5488201 C5.37340733,12.4193037 5.24697003,12.2856093 5.12763596,12.1407737 C5.10348502,12.111528 5.07933407,12.0822824 5.05376249,12.0474662 C4.18859046,10.9862669 3.66721421,9.64235977 3.66721421,8.18147002 L5.33504994,8.18147002 L2.66850166,4.26116054 L0.00195338513,8.18147002 L1.66694784,8.18147002 C1.66694784,9.89860735 2.21531632,11.4917988 3.14299667,12.8106383 C3.15436182,12.8301354 3.16146504,12.8510251 3.17425083,12.8677369 C3.26943396,13.0042166 3.37740289,13.1281625 3.47968923,13.253501 C3.51946726,13.2994584 3.55356271,13.3468085 3.59476138,13.3983366 C3.74534961,13.5765957 3.90872364,13.746499 4.07351831,13.913617 C4.09056604,13.9303288 4.10477248,13.9442553 4.11897891,13.9595745 C4.6772919,14.5082785 5.30663707,14.967853 5.99280799,15.3382979 C6.01127636,15.3480464 6.02690344,15.3564023 6.0482131,15.3675435 C6.24568257,15.4719923 6.44883463,15.5680851 6.65340733,15.6558221 C6.70597114,15.6781044 6.75569367,15.7003868 6.8054162,15.7212766 C6.98299667,15.795087 7.16341842,15.8563636 7.34526082,15.9176402 C7.43192009,15.9468859 7.51573807,15.9747389 7.60381798,16.0025919 C7.76293008,16.0471567 7.92488346,16.0875435 8.08967814,16.1237524 C8.1990677,16.1488201 8.30419534,16.1766731 8.41642619,16.1961702 C8.46188679,16.2073114 8.5045061,16.2212379 8.5499667,16.2254159 C8.70623751,16.2532689 8.86108768,16.2671954 9.0145172,16.2852998 C9.07134295,16.2950484 9.12674806,16.3047969 9.18215316,16.3103675 C9.46059933,16.3368279 9.73762486,16.3535397 10.0146504,16.3535397 C11.7066371,16.3535397 13.3602664,15.8466151 14.7780688,14.8717602 C15.2298335,14.5611992 15.3406437,13.9484333 15.0252608,13.5083559 C14.7070366,13.0613153 14.0847947,12.9540812 13.63303,13.2674275 L13.63303,13.2674275 Z M18.3296781,8.18147002 C18.3296781,6.46851064 17.7884129,4.8767118 16.8649945,3.56483559 C16.850788,3.54255319 16.8422642,3.51887814 16.830899,3.49938104 C16.7115649,3.33783366 16.5893896,3.18742747 16.4629523,3.03562863 C16.4487458,3.01891683 16.4345394,2.99941973 16.4217536,2.97992263 C15.5722087,1.9772147 14.5109878,1.1987234 13.3105438,0.69040619 C13.2750277,0.676479691 13.2451942,0.661160542 13.2096781,0.647234043 C13.0164706,0.569245648 12.8204218,0.502398453 12.620111,0.435551257 C12.5519201,0.413268859 12.4794673,0.388201161 12.4084351,0.367311412 C12.2351165,0.315783366 12.061798,0.274003868 11.8856382,0.233617021 C11.7876138,0.212727273 11.6881687,0.187659574 11.5901443,0.168162476 C11.5418424,0.159806576 11.4978024,0.145880077 11.4466593,0.136131528 C11.3145394,0.115241779 11.1852608,0.10270793 11.053141,0.0873887814 C10.9607991,0.0776402321 10.8727192,0.0637137331 10.7803774,0.0539651838 C10.5587569,0.0330754352 10.3385572,0.0247195358 10.1183574,0.0205415861 C10.0785794,0.0205415861 10.0388013,0.0149709865 9.99902331,0.0149709865 C9.99192009,0.0149709865 9.98481687,0.0163636364 9.97771365,0.0177562863 C8.28714761,0.0191489362 6.6363596,0.519110251 5.22139845,1.49257253 C4.76963374,1.80174081 4.65882353,2.41311412 4.97704772,2.85876209 C5.29100999,3.30023211 5.91751387,3.4088588 6.37069922,3.09690522 C7.46317425,2.34765957 8.73891232,1.9660735 10.0473252,1.97860735 C10.2348502,1.98 10.4223751,1.9883559 10.6042175,2.00646035 C10.6610433,2.0106383 10.7150277,2.0189942 10.7718535,2.0273501 C10.9224417,2.04545455 11.0716093,2.06495164 11.2193563,2.09558994 C11.2832852,2.10673114 11.3486349,2.12344294 11.4097225,2.13736944 C11.5560488,2.16940039 11.6981132,2.20282398 11.8387569,2.24460348 C11.8856382,2.25713733 11.9282575,2.27245648 11.9708768,2.28916828 C12.1342508,2.34069632 12.2933629,2.39500967 12.4467925,2.45907157 C12.4638402,2.46324952 12.4794673,2.47578337 12.4950943,2.48135397 C13.4284573,2.87408124 14.2453274,3.4784913 14.8846171,4.23609284 C14.8860377,4.23887814 14.888879,4.24444874 14.8945616,4.24862669 C15.7924084,5.32096712 16.3322531,6.68994197 16.3336737,8.18147002 L14.6644173,8.18147002 L17.3352275,12.1031721 L19.9989345,8.18147002 L18.3296781,8.18147002 Z" id="Shape"></path>
            </g>
        </g>
    </g>
</svg>