<svg height="12" viewBox="0 0 12 12" width="12" xmlns="http://www.w3.org/2000/svg"><path d="m2.6670001 6.40748933h-2.29834357c-.19819878 0-.36034904-.1623229-.36034904-.36070519v-.01023189c0-.19839467.16216263-.3607052.36034904-.3607052h2.29834357c.19819878 0 .36034904.16232291.36034904.3607052v.01023189c.00001238.19839467-.16215026.36070519-.36034904.36070519zm8.9622826 0h-2.29835593c-.19819878 0-.36034905-.1623229-.36034905-.36070519v-.01023189c0-.19839467.16216264-.3607052.36034905-.3607052h2.29834353c.1981988 0 .3603491.16232291.3603491.3607052v.01023189c.0000124.19839467-.1621503.36070519-.3603367.36070519zm-.5199005-2.92556576-2.00037718 1.13287865c-.17249581.0976861-.39348943.03634428-.49107907-.13632201l-.00503665-.00890645c-.09758964-.17266629-.03630838-.39387833.13618742-.49156442l2.00037718-1.13287866c.1724958-.09768609.3934894-.03634427.491079.13632202l.0050367.00890645c.097602.17266629.0363207.39386595-.1361874.49156442zm-1.94882272-2.20380854-1.1837353 1.97201776c-.10208178.17005257-.32459753.22558475-.4944822.12341447l-.00876153-.00527698c-.16988467-.10218267-.22536202-.32491834-.12329262-.49497091l1.18373529-1.97201776c.10208178-.17005257.32459754-.22558475.4944822-.12341447l.00876154.00526459c.16988468.10219506.2253744.32493073.12329262.4949833zm-2.80078294-.90222751-.01188005 2.30059035c-.00102712.19838229-.16401889.35986286-.3622053.35883472l-.01022179-.00004955c-.19818641-.00102814-.35950754-.164181-.35848042-.36256329l.01188005-2.30059034c.00102713-.19838229.16401889-.35986286.3622053-.35883472l.0102218.00004954c.19818641.00101576.35950755.164181.35848041.36256329zm-2.83564343.52129389 1.15368868 1.98978112c.09948302.17158859.04063967.39345716-.13077952.4930385l-.00884816.00514072c-.17141917.09958134-.39306868.04067983-.49255169-.13090878l-1.15368868-1.98978111c-.09948302-.17158859-.04063966-.39345717.13077952-.4930385l.00884816-.00514072c.17141917-.09958134.3930563-.04066744.49255169.13090877zm-2.24666537 1.94320495 1.99302637 1.1457862c.17186467.09880094.23172279.32039699.1330194.49243152l-.00508615.00886929c-.09870339.17203453-.32008064.23195182-.49194531.13315087l-1.99303874-1.14577381c-.17186467-.09880094-.2317228-.32039699-.1330194-.49243152l.00508615-.00886929c.09871576-.17204694.320093-.23196421.49195768-.13316326zm9.46425176 6.2989193-1.99042764-1.15030756c-.17164193-.09919734-.23099266-.32092964-.13189327-.49274121l.00511089-.00885691c.09909939-.17181157.32061277-.23122095.49225469-.13202362l1.99042763 1.15030756c.1716419.09919734.2309926.32092964.1318932.49274121l-.0051108.00885691c-.0991118.17181157-.3206252.23122095-.4922547.13202362zm-7.45428395-1.17867443-1.98341095 1.16239755c-.17103555.10023787-.39290781.04216629-.4930467-.1290383l-.0051604-.00883213c-.1001389-.17120459-.04212467-.39329613.12891088-.493534l1.98341096-1.16239754c.17103555-.10023787.3929078-.0421663.4930467.12903829l.0051604.00883213c.10012651.17120459.04212466.39329613-.12891089.493534zm1.38445859 1.08080253-1.13920988 1.99811774c-.09823314.1723071-.3194495.2328189-.49158643.1344887l-.00887292-.0050664c-.17213692-.0983302-.23258904-.3197652-.1343559-.4920723l1.13920988-1.99811773c.09823314-.17230706.31944951-.23281892.49158643-.13448869l.00888529.00506639c.17212455.0983426.23258904.31977762.13434353.49207229zm1.70741024.28384213-.00856354 2.30060271c-.0007425.1983947-.16349914.3600982-.36169793.359355l-.01022179-.0000372c-.19819878-.0007432-.35974267-.1636607-.35901254-.3620554l.00856353-2.30060271c.0007425-.19839467.16349914-.36009821.36169794-.35936736l.01022179.00003716c.19819878.00075563.35975504.16367313.35901254.3620678zm1.63272682-.60592379 1.12429794 2.0065659c.09694613.1730379.03484813.3940022-.13801892.4910565l-.00892242.0050045c-.17286705.0970419-.39361317.0348826-.49057168-.1381553l-1.12429794-2.00656593c-.09694613-.17303791-.03484813-.3940022.13801892-.49105654l.00892241-.00500446c.17286705-.09704194.39362555-.03488258.49057169.13815533z" fill="#7b7b7b" transform=""/></svg>