<?xml version="1.0" encoding="UTF-8"?>
<svg width="12px" height="12px" viewBox="0 0 12 12" version="1.1" xmlns="http://www.w3.org/2000/svg" xmlns:xlink="http://www.w3.org/1999/xlink">
    <!-- Generator: Sketch 43.1 (39012) - http://www.bohemiancoding.com/sketch -->
    <title>Group 17 Copy 2</title>
    <desc>Created with Sketch.</desc>
    <defs></defs>
    <g id="Page-1" stroke="none" stroke-width="1" fill="none" fill-rule="evenodd">
        <g id="crosssell-170608-2" transform="translate(-484.000000, -207.000000)" fill-rule="nonzero" fill="#3A3A3A">
            <g id="Group-17-Copy-2" transform="translate(484.000000, 207.000000)">
                <g id="å‰">
                    <path d="M11.8102883,10.8787984 L7.01085738,5.99998256 L11.8102711,1.1211842 C11.9346384,0.994741926 11.9968049,0.829070983 11.9968049,0.663365148 C11.9968049,0.497659313 11.9346384,0.331988369 11.8102711,0.205563545 C11.5615537,-0.0472686648 11.1582866,-0.0472686648 10.9095521,0.205563545 L6.11015548,5.08436189 L1.3107589,0.205563545 C1.06202433,-0.0472686648 0.658791571,-0.0472686648 0.410057,0.205563545 C0.161322429,0.45841321 0.161322429,0.868334557 0.410057,1.1211842 L5.20947073,5.99998256 L0.410022676,10.8787984 C0.161305275,11.131648 0.161305275,11.5415694 0.410022676,11.794419 C0.658757246,12.0472338 1.06200718,12.0472338 1.31072458,11.794419 L6.11015548,6.91558577 L10.9095864,11.794419 C11.0339537,11.9208438 11.1969283,11.9840388 11.3599373,11.9840388 C11.5229463,11.9840388 11.685921,11.9208439 11.8102883,11.794419 C12.0590228,11.5415868 12.0590228,11.131648 11.8102883,10.8787984 Z" id="Shape"></path>
                </g>
            </g>
        </g>
    </g>
</svg>