<svg xmlns="http://www.w3.org/2000/svg" viewBox="2443 3369 11 11">
  <defs>
    <style>
      .cls-1 {
        fill: #de3418;
      }

      .cls-2 {
        fill: #fff;
      }
    </style>
  </defs>
  <g id="warn" transform="translate(2443 3369)">
    <g id="Price-Copy-2">
      <g id="warn-copy">
        <circle id="Oval" class="cls-1" cx="5.5" cy="5.5" r="5.5"/>
        <path id="Shape" class="cls-2" d="M8.967,7.667H8.254A.254.254,0,0,1,8,7.385v-3.1A.254.254,0,0,1,8.254,4h.714a.254.254,0,0,1,.254.282v3.1a.254.254,0,0,1-.254.282Z" transform="translate(-3.11 -1.556)"/>
        <path id="Shape-2" data-name="Shape" class="cls-2" d="M8.968,13.222H8.254c-.153,0-.254-.136-.254-.34V12.34c0-.2.1-.34.254-.34h.714c.153,0,.254.136.254.34v.54C9.222,13.086,9.121,13.222,8.968,13.222Z" transform="translate(-3.111 -4.667)"/>
      </g>
    </g>
  </g>
</svg>
