<svg xmlns="http://www.w3.org/2000/svg" viewBox="0 0 73.672 91.009">
  <defs>
    <style>
      .cls-1, .cls-2 {
        fill: #7b7b7b;
      }

      .cls-1 {
        stroke: #7b7b7b;
      }
    </style>
  </defs>
  <g id="Group_1" data-name="Group 1" transform="translate(-926.5 -458.491)">
    <path id="Shape" class="cls-1" d="M71.933,21.957,51.36,1.452a1.176,1.176,0,0,0-1.293-.82H13.037A12.91,12.91,0,0,0,.105,13.521v64.21A12.91,12.91,0,0,0,13.037,90.62H59.825A12.91,12.91,0,0,0,72.756,77.731V23.246A1.172,1.172,0,0,0,71.933,21.957ZM51.478,4.85,68.524,21.957H51.478ZM70.4,77.731a10.563,10.563,0,0,1-10.58,10.545H13.037A10.563,10.563,0,0,1,2.457,77.731V13.521A10.563,10.563,0,0,1,13.037,2.975h36.09V21.957A2.347,2.347,0,0,0,51.478,24.3H70.4Z" transform="translate(926.895 458.38)"/>
    <path id="Shape-2" data-name="Shape" class="cls-2" d="M1.892,0H5.526c.9,0,1.562.306,1.487,1.657L6.18,23.338a1.142,1.142,0,0,1-1.108,1.088H2.352a1.142,1.142,0,0,1-1.108-1.088L.411,1.657C.33.306,1,0,1.892,0ZM3.709,35.607A3.727,3.727,0,1,1,7.418,31.88,3.719,3.719,0,0,1,3.709,35.607Z" transform="translate(959.205 486.173)"/>
  </g>
</svg>
